HIERARCHY
ROOT hip
{
  OFFSET -0.0897746 90.7695 -0.105382
  CHANNELS 6 Xposition Yposition Zposition Zrotation Xrotation Yrotation
  JOINT abdomen
  {
    OFFSET 0 7.2397 0
    CHANNELS 6 Xposition Yposition Zposition Zrotation Xrotation Yrotation
    JOINT chest
    {
      OFFSET 0 16.546 0
      CHANNELS 6 Xposition Yposition Zposition Zrotation Xrotation Yrotation
      JOINT neck
      {
        OFFSET 0 34.2149 0
        CHANNELS 6 Xposition Yposition Zposition Zrotation Xrotation Yrotation
        JOINT head
        {
          OFFSET 0 6.2923 0
          CHANNELS 6 Xposition Yposition Zposition Zrotation Xrotation Yrotation
          End Site
          {
            OFFSET 0 21.2161 0
          }
        }
      }
      JOINT lCollar
      {
        OFFSET 4.0639 26.6115 -1.1234
        CHANNELS 6 Xposition Yposition Zposition Zrotation Xrotation Yrotation
        JOINT lShldr
        {
          OFFSET 14.1772 0 0
          CHANNELS 6 Xposition Yposition Zposition Zrotation Xrotation Yrotation
          JOINT lForeArm
          {
            OFFSET 26.1234 0 0
            CHANNELS 6 Xposition Yposition Zposition Zrotation Xrotation Yrotation
            JOINT lHand
            {
              OFFSET 27.7188 0 0
              CHANNELS 6 Xposition Yposition Zposition Zrotation Xrotation Yrotation
              JOINT lThumb1
              {
                OFFSET 2.2979 -0.4685 1.8313
                CHANNELS 6 Xposition Yposition Zposition Zrotation Xrotation Yrotation
                JOINT lThumb2
                {
                  OFFSET 5.2953 0 0
                  CHANNELS 6 Xposition Yposition Zposition Zrotation Xrotation Yrotation
                  JOINT lThumb3
                  {
                    OFFSET 3.0181 0 0
                    CHANNELS 6 Xposition Yposition Zposition Zrotation Xrotation Yrotation
                    End Site
                    {
                      OFFSET 2.6294 0 0
                    }
                  }
                }
              }
              JOINT lIndex1
              {
                OFFSET 9.3793 0.2991 2.5924
                CHANNELS 6 Xposition Yposition Zposition Zrotation Xrotation Yrotation
                JOINT lIndex2
                {
                  OFFSET 4.3461 0 0
                  CHANNELS 6 Xposition Yposition Zposition Zrotation Xrotation Yrotation
                  JOINT lIndex3
                  {
                    OFFSET 2.1666 0 0
                    CHANNELS 6 Xposition Yposition Zposition Zrotation Xrotation Yrotation
                    End Site
                    {
                      OFFSET 2.2048 0 0
                    }
                  }
                }
              }
              JOINT lMid1
              {
                OFFSET 9.4769 0.8376 0.2947
                CHANNELS 6 Xposition Yposition Zposition Zrotation Xrotation Yrotation
                JOINT lMid2
                {
                  OFFSET 4.772 0 0
                  CHANNELS 6 Xposition Yposition Zposition Zrotation Xrotation Yrotation
                  JOINT lMid3
                  {
                    OFFSET 2.8722 0 0
                    CHANNELS 6 Xposition Yposition Zposition Zrotation Xrotation Yrotation
                    End Site
                    {
                      OFFSET 2.0959 0 0
                    }
                  }
                }
              }
              JOINT lRing1
              {
                OFFSET 8.6586 1.0176 -1.7016
                CHANNELS 6 Xposition Yposition Zposition Zrotation Xrotation Yrotation
                JOINT lRing2
                {
                  OFFSET 4.5461 0 0
                  CHANNELS 6 Xposition Yposition Zposition Zrotation Xrotation Yrotation
                  JOINT lRing3
                  {
                    OFFSET 2.506 0 0
                    CHANNELS 6 Xposition Yposition Zposition Zrotation Xrotation Yrotation
                    End Site
                    {
                      OFFSET 2.2023 0 0
                    }
                  }
                }
              }
              JOINT lPinky1
              {
                OFFSET 7.6901 0.6618 -3.9096
                CHANNELS 6 Xposition Yposition Zposition Zrotation Xrotation Yrotation
                JOINT lPinky2
                {
                  OFFSET 3.2119 0 0
                  CHANNELS 6 Xposition Yposition Zposition Zrotation Xrotation Yrotation
                  JOINT lPinky3
                  {
                    OFFSET 1.924 0 0
                    CHANNELS 6 Xposition Yposition Zposition Zrotation Xrotation Yrotation
                    End Site
                    {
                      OFFSET 1.7829 0 0
                    }
                  }
                }
              }
            }
          }
        }
      }
      JOINT rCollar
      {
        OFFSET -4.0677 26.6109 -1.1234
        CHANNELS 6 Xposition Yposition Zposition Zrotation Xrotation Yrotation
        JOINT rShldr
        {
          OFFSET -14.1772 0 0
          CHANNELS 6 Xposition Yposition Zposition Zrotation Xrotation Yrotation
          JOINT rForeArm
          {
            OFFSET -26.1234 0 0
            CHANNELS 6 Xposition Yposition Zposition Zrotation Xrotation Yrotation
            JOINT rHand
            {
              OFFSET -27.7188 0 0
              CHANNELS 6 Xposition Yposition Zposition Zrotation Xrotation Yrotation
              JOINT rThumb1
              {
                OFFSET -2.2979 -0.4684 1.8313
                CHANNELS 6 Xposition Yposition Zposition Zrotation Xrotation Yrotation
                JOINT rThumb2
                {
                  OFFSET -5.2953 0 0
                  CHANNELS 6 Xposition Yposition Zposition Zrotation Xrotation Yrotation
                  JOINT rThumb3
                  {
                    OFFSET -3.0181 0 0
                    CHANNELS 6 Xposition Yposition Zposition Zrotation Xrotation Yrotation
                    End Site
                    {
                      OFFSET -2.6294 0 0
                    }
                  }
                }
              }
              JOINT rIndex1
              {
                OFFSET -9.3793 0.2991 2.5924
                CHANNELS 6 Xposition Yposition Zposition Zrotation Xrotation Yrotation
                JOINT rIndex2
                {
                  OFFSET -4.3461 0 0
                  CHANNELS 6 Xposition Yposition Zposition Zrotation Xrotation Yrotation
                  JOINT rIndex3
                  {
                    OFFSET -2.1666 0 0
                    CHANNELS 6 Xposition Yposition Zposition Zrotation Xrotation Yrotation
                    End Site
                    {
                      OFFSET -2.2048 0 0
                    }
                  }
                }
              }
              JOINT rMid1
              {
                OFFSET -9.4769 0.8376 0.2947
                CHANNELS 6 Xposition Yposition Zposition Zrotation Xrotation Yrotation
                JOINT rMid2
                {
                  OFFSET -4.772 0 0
                  CHANNELS 6 Xposition Yposition Zposition Zrotation Xrotation Yrotation
                  JOINT rMid3
                  {
                    OFFSET -2.8722 0 0
                    CHANNELS 6 Xposition Yposition Zposition Zrotation Xrotation Yrotation
                    End Site
                    {
                      OFFSET -2.0959 0 0
                    }
                  }
                }
              }
              JOINT rRing1
              {
                OFFSET -8.6586 1.0176 -1.7016
                CHANNELS 6 Xposition Yposition Zposition Zrotation Xrotation Yrotation
                JOINT rRing2
                {
                  OFFSET -4.5461 0 0
                  CHANNELS 6 Xposition Yposition Zposition Zrotation Xrotation Yrotation
                  JOINT rRing3
                  {
                    OFFSET -2.506 0 0
                    CHANNELS 6 Xposition Yposition Zposition Zrotation Xrotation Yrotation
                    End Site
                    {
                      OFFSET -2.2023 0 0
                    }
                  }
                }
              }
              JOINT rPinky1
              {
                OFFSET -7.6901 0.6618 -3.9096
                CHANNELS 6 Xposition Yposition Zposition Zrotation Xrotation Yrotation
                JOINT rPinky2
                {
                  OFFSET -3.2119 0 0
                  CHANNELS 6 Xposition Yposition Zposition Zrotation Xrotation Yrotation
                  JOINT rPinky3
                  {
                    OFFSET -1.924 0 0
                    CHANNELS 6 Xposition Yposition Zposition Zrotation Xrotation Yrotation
                    End Site
                    {
                      OFFSET -1.7829 0 0
                    }
                  }
                }
              }
            }
          }
        }
      }
    }
  }
  JOINT lThigh
  {
    OFFSET 8.7379 -0.0029 0.0005
    CHANNELS 6 Xposition Yposition Zposition Zrotation Xrotation Yrotation
    JOINT lShin
    {
      OFFSET 0 -46.6676 0
      CHANNELS 6 Xposition Yposition Zposition Zrotation Xrotation Yrotation
      JOINT lFoot
      {
        OFFSET 0 -40.1476 0
        CHANNELS 6 Xposition Yposition Zposition Zrotation Xrotation Yrotation
        JOINT lToes
        {
          OFFSET 0 -8.8846 14.2294
          CHANNELS 6 Xposition Yposition Zposition Zrotation Xrotation Yrotation
          End Site
          {
            OFFSET 0 0 6.296
          }
        }
      }
    }
  }
  JOINT rThigh
  {
    OFFSET -8.7379 0.0029 -0.0005
    CHANNELS 6 Xposition Yposition Zposition Zrotation Xrotation Yrotation
    JOINT rShin
    {
      OFFSET 0 -46.6676 0
      CHANNELS 6 Xposition Yposition Zposition Zrotation Xrotation Yrotation
      JOINT rFoot
      {
        OFFSET 0 -40.1476 0
        CHANNELS 6 Xposition Yposition Zposition Zrotation Xrotation Yrotation
        JOINT rToes
        {
          OFFSET 0 -8.8846 14.2294
          CHANNELS 6 Xposition Yposition Zposition Zrotation Xrotation Yrotation
          End Site
          {
            OFFSET 0 0 6.296
          }
        }
      }
    }
  }
}
MOTION
Frames:	4
Frame Time:	0.0333333
0.364318 89.6745 -0.99732 -3.498 -1.03983 -33.0607 0 7.2397 -4.44089e-16 1.00428 0.895703 2.45873 0 16.546 -2.22045e-16 1.51872 3.68314 4.64247 0 34.2149 0 -3.33315 51.41 4.30277 -2.22045e-16 6.2923 0 -3.0338 -25.2107 -7.44823 4.0639 26.6115 -1.1234 -0.598812 -4.99266 -17.4413 14.1772 0 0 -42.5772 -13.9942 -38.8149 26.1234 0 0 3.07733 3.04414 -73.4847 27.7188 0 1.06581e-14 71.3851 -21.6994 61.1386 2.2979 -0.4685 1.8313 75.4394 76.2515 -94.8845 5.2953 2.84217e-14 -3.55271e-15 -20.867 -4.62108 -3.79491 3.0181 0 0 12.4883 -0.000109421 -5.86965e-06 9.3793 0.2991 2.5924 -56.1253 -1.40745 26.7695 4.3461 -3.55271e-15 0 -36.5208 -1.05785 4.16241 2.1666 7.10543e-15 -2.84217e-14 -2.1684 -1.36217e-05 -1.63111e-06 9.4769 0.8376 0.2947 -72.6936 -8.05907 25.4365 4.772 -1.06581e-14 0 -26.8628 -0.355024 1.81717 2.8722 0 0 3.9574 0.0710973 0.3994 8.6586 1.0176 -1.7016 -70.0388 -4.09152 25.7169 4.5461 0 2.84217e-14 -53.8954 1.18562 -2.31519 2.506 0 0 6.7605 -9.46994e-06 -9.94322e-05 7.6901 0.6618 -3.9096 -65.3815 -11.4959 16.307 3.2119 0 0 -54.5105 -2.80196 5.43878 1.924 0 0 4.4131 -5.95467e-06 -3.69154e-06 -4.0677 26.6109 -1.1234 -8.28782 -7.84644 24.47 -14.1772 0 8.88178e-16 42.7814 4.25475 76.5301 -26.1234 0 -1.42109e-14 4.88416 -4.83494 40.9476 -27.7188 -1.42109e-14 -1.42109e-14 -17.1327 -32.6971 -18.9246 -2.2979 -0.4684 1.8313 -81.3889 62.0855 108.053 -5.2953 0 -1.42109e-14 35.1479 7.00817 -6.38046 -3.0181 0 -2.84217e-14 -12.4883 -9.51409e-05 0.000105278 -9.3793 0.2991 2.5924 -5.16952 -7.13868 -5.73389 -4.3461 0 2.84217e-14 22.3149 -0.453947 -4.23827 -2.1666 0 0 2.1682 1.53065e-06 6.59416e-06 -9.4769 0.8376 0.2947 50.1823 -7.02307 -9.35575 -4.772 -1.42109e-14 -2.84217e-14 81.5881 -4.33087 -5.11032 -2.8722 0 2.84217e-14 -3.95751 0.0709846 -0.399396 -8.6586 1.0176 -1.7016 48.4808 2.38629 -6.84419 -4.5461 0 0 78.7212 3.33836 4.24001 -2.506 0 0 -6.7605 -1.01325e-05 4.95487e-06 -7.6901 0.6618 -3.9096 50.9912 -7.38058 2.10801 -3.2119 0 0 75.4392 -6.74945 -5.59636 -1.924 3.55271e-15 2.84217e-14 -4.413 -4.01223e-06 1.12213e-06 8.7379 -0.0029 0.0005 19.7157 -23.2795 16.955 -3.55271e-15 -46.6676 -7.10543e-15 3.79714 37.3609 -1.29145 -3.55271e-15 -40.1476 0 -11.9012 -7.16321 14.3447 0 -8.8846 14.2294 0.0001 7.76503e-19 2.48481e-17 -8.7379 0.0029 -0.0005 -17.5597 -7.66527 -25.0591 -3.55271e-15 -46.6676 0 -3.98109 38.6337 1.46234 0 -40.1476 1.33227e-15 16.3253 -19.9177 -1.13342 0 -8.8846 14.2294 -1.98785e-16 1.98785e-16 3.18055e-15 
0.361477 89.6723 -0.994914 -3.50036 -1.04664 -33.0609 4.44089e-16 7.2397 0 1.00288 0.893154 2.45928 -4.44089e-16 16.546 -2.22045e-16 1.51635 3.67801 4.64382 0 34.2149 0 -3.30033 51.4048 4.26762 -4.44089e-16 6.2923 1.42109e-14 -3.03415 -25.214 -7.4518 4.0639 26.6115 -1.1234 -0.598475 -4.99273 -17.4419 14.1772 0 0 -42.5877 -14.0113 -38.7869 26.1234 1.42109e-14 1.42109e-14 3.05598 3.03399 -73.5391 27.7188 0 3.55271e-15 71.3953 -21.7207 61.106 2.2979 -0.4685 1.8313 75.4548 76.1835 -94.9157 5.2953 0 -3.55271e-15 -20.9472 -4.6407 -3.77727 3.0181 -2.84217e-14 0 12.4883 -0.000109421 -5.86965e-06 9.3793 0.2991 2.5924 -56.1106 -1.38545 26.7529 4.3461 -3.55271e-15 -2.84217e-14 -36.5288 -1.05841 4.16318 2.1666 3.55271e-15 -5.68434e-14 -2.1684 -1.36217e-05 -1.63111e-06 9.4769 0.8376 0.2947 -72.7025 -8.06254 25.4437 4.772 0 0 -26.8669 -0.355152 1.81743 2.8722 0 0 3.9574 0.0710973 0.3994 8.6586 1.0176 -1.7016 -70.0032 -4.10157 25.7426 4.5461 7.10543e-15 5.68434e-14 -53.8891 1.18537 -2.31501 2.506 -7.10543e-15 -2.84217e-14 6.7605 -9.46994e-06 -9.94322e-05 7.6901 0.6618 -3.9096 -65.2769 -11.4897 16.2842 3.2119 7.10543e-15 0 -54.5016 -2.80112 5.43817 1.924 0 0 4.4131 -5.95467e-06 -3.69154e-06 -4.0677 26.6109 -1.1234 -8.28455 -7.84527 24.4684 -14.1772 0 -8.88178e-16 42.8075 4.24789 76.4857 -26.1234 0 -1.42109e-14 4.87545 -4.80261 41.0546 -27.7188 0 -7.10543e-15 -17.138 -32.6187 -18.9463 -2.2979 -0.4684 1.8313 -81.2666 62.1444 107.837 -5.2953 1.42109e-14 1.42109e-14 35.2206 6.96094 -6.38537 -3.0181 -1.42109e-14 0 -12.4883 -9.51409e-05 0.000105278 -9.3793 0.2991 2.5924 -5.12658 -7.14612 -5.72612 -4.3461 0 0 22.3457 -0.455206 -4.23748 -2.1666 -7.10543e-15 -2.84217e-14 2.1682 1.53065e-06 6.59416e-06 -9.4769 0.8376 0.2947 50.1877 -7.02308 -9.3601 -4.772 -1.42109e-14 2.84217e-14 81.5934 -4.33134 -5.1104 -2.8722 -7.10543e-15 0 -3.95751 0.0709846 -0.399396 -8.6586 1.0176 -1.7016 48.4743 2.38643 -6.84343 -4.5461 0 0 78.7332 3.33924 4.24019 -2.506 0 0 -6.7605 -1.01325e-05 4.95487e-06 -7.6901 0.6618 -3.9096 50.9793 -7.37297 2.10942 -3.2119 0 0 75.5619 -6.73617 -5.58743 -1.924 -3.55271e-15 0 -4.413 -4.01223e-06 1.12213e-06 8.7379 -0.0029 0.0005 19.7167 -23.2745 16.9578 -3.55271e-15 -46.6676 0 3.79857 37.3701 -1.29237 0 -40.1476 0 -11.9027 -7.16874 14.3389 0 -8.8846 14.2294 0.0001 0 -2.48481e-17 -8.7379 0.0029 -0.0005 -17.5612 -7.66127 -25.052 -3.55271e-15 -46.6676 0 -3.98269 38.6438 1.46312 0 -40.1476 1.33227e-15 16.329 -19.9212 -1.13533 3.55271e-15 -8.8846 14.2294 5.51738e-33 -9.93923e-17 3.18055e-15 
0.358613 89.6706 -0.992263 -3.50262 -1.05321 -33.0614 -4.44089e-16 7.2397 -8.88178e-16 1.00178 0.89067 2.45987 0 16.546 -4.44089e-16 1.51454 3.67302 4.64521 4.44089e-16 34.2149 0 -3.27057 51.4 4.23547 -2.22045e-16 6.2923 -1.42109e-14 -3.03493 -25.2176 -7.45563 4.0639 26.6115 -1.1234 -0.598817 -4.99265 -17.4424 14.1772 0 -8.88178e-16 -42.5967 -14.026 -38.7603 26.1234 0 0 3.03645 3.02469 -73.5901 27.7188 -1.42109e-14 -3.55271e-15 71.403 -21.7376 61.0759 2.2979 -0.4685 1.8313 75.4641 76.1191 -94.9415 5.2953 0 1.06581e-14 -21.026 -4.65974 -3.76139 3.0181 0 0 12.4883 -0.000109421 -5.86965e-06 9.3793 0.2991 2.5924 -56.1025 -1.36499 26.7372 4.3461 3.55271e-15 0 -36.5348 -1.05883 4.16377 2.1666 7.10543e-15 0 -2.1684 -1.36217e-05 -1.63111e-06 9.4769 0.8376 0.2947 -72.7171 -8.06483 25.4497 4.772 -3.55271e-15 0 -26.8691 -0.35522 1.81757 2.8722 7.10543e-15 -2.84217e-14 3.9574 0.0710973 0.3994 8.6586 1.0176 -1.7016 -69.9739 -4.11025 25.7696 4.5461 7.10543e-15 0 -53.8809 1.18504 -2.31477 2.506 0 2.84217e-14 6.7605 -9.46994e-06 -9.94322e-05 7.6901 0.6618 -3.9096 -65.185 -11.488 16.2673 3.2119 0 -5.68434e-14 -54.493 -2.8003 5.43759 1.924 -7.10543e-15 2.84217e-14 4.4131 -5.95467e-06 -3.69154e-06 -4.0677 26.6109 -1.1234 -8.2807 -7.84391 24.4666 -14.1772 0 0 42.8322 4.24311 76.4444 -26.1234 0 1.42109e-14 4.86746 -4.77299 41.1531 -27.7188 -2.84217e-14 0 -17.1427 -32.5468 -18.9662 -2.2979 -0.4684 1.8313 -81.1522 62.1974 107.637 -5.2953 0 0 35.2884 6.91755 -6.39007 -3.0181 0 -2.84217e-14 -12.4883 -9.51409e-05 0.000105278 -9.3793 0.2991 2.5924 -5.08548 -7.15316 -5.71822 -4.3461 0 0 22.3796 -0.456673 -4.23752 -2.1666 0 5.68434e-14 2.1682 1.53065e-06 6.59416e-06 -9.4769 0.8376 0.2947 50.199 -7.02323 -9.36333 -4.772 -1.42109e-14 0 81.598 -4.33175 -5.11046 -2.8722 0 -2.84217e-14 -3.95751 0.0709846 -0.399396 -8.6586 1.0176 -1.7016 48.4677 2.38657 -6.84527 -4.5461 0 -1.42109e-14 78.7414 3.33984 4.24031 -2.506 -7.10543e-15 -2.84217e-14 -6.7605 -1.01325e-05 4.95487e-06 -7.6901 0.6618 -3.9096 50.9719 -7.36588 2.11285 -3.2119 0 0 75.6741 -6.72402 -5.57924 -1.924 0 0 -4.413 -4.01223e-06 1.12213e-06 8.7379 -0.0029 0.0005 19.7172 -23.2691 16.9598 7.10543e-15 -46.6676 7.10543e-15 3.79986 37.3785 -1.29318 -3.55271e-15 -40.1476 3.55271e-15 -11.9042 -7.17384 14.334 0 -8.8846 14.2294 0.0001 -1.55301e-18 -2.48481e-17 -8.7379 0.0029 -0.0005 -17.5627 -7.65678 -25.0457 0 -46.6676 3.55271e-15 -3.98407 38.6524 1.46381 3.55271e-15 -40.1476 1.77636e-15 16.3321 -19.9242 -1.13664 0 -8.8846 14.2294 1.10348e-32 1.98785e-16 -3.18055e-15 
0.355793 89.6691 -0.989472 -3.50468 -1.05947 -33.0622 -8.88178e-16 7.2397 0 1.00093 0.888321 2.46049 0 16.546 2.22045e-16 1.5132 3.66831 4.64663 -2.22045e-16 34.2149 -8.88178e-16 -3.24358 51.3954 4.20621 -4.44089e-16 6.2923 0 -3.03608 -25.2214 -7.45931 4.0639 26.6115 -1.1234 -0.599706 -4.99248 -17.4431 14.1772 -2.84217e-14 0 -42.604 -14.0386 -38.7351 26.1234 1.42109e-14 0 3.01871 3.01622 -73.6372 27.7188 1.42109e-14 -1.42109e-14 71.4088 -21.7505 61.0484 2.2979 -0.4685 1.8313 75.4659 76.0575 -94.9614 5.2953 1.42109e-14 7.10543e-15 -21.1046 -4.67843 -3.74729 3.0181 0 0 12.4883 -0.000109421 -5.86965e-06 9.3793 0.2991 2.5924 -56.1026 -1.34594 26.7222 4.3461 3.55271e-15 0 -36.5389 -1.05912 4.16417 2.1666 3.55271e-15 0 -2.1684 -1.36217e-05 -1.63111e-06 9.4769 0.8376 0.2947 -72.7401 -8.06557 25.4541 4.772 0 0 -26.8688 -0.355209 1.81755 2.8722 -7.10543e-15 2.84217e-14 3.9574 0.0710973 0.3994 8.6586 1.0176 -1.7016 -69.953 -4.11719 25.7994 4.5461 0 2.84217e-14 -53.8703 1.18461 -2.31446 2.506 7.10543e-15 2.84217e-14 6.7605 -9.46994e-06 -9.94322e-05 7.6901 0.6618 -3.9096 -65.1061 -11.4913 16.2569 3.2119 -7.10543e-15 2.84217e-14 -54.4855 -2.79957 5.43707 1.924 0 0 4.4131 -5.95467e-06 -3.69154e-06 -4.0677 26.6109 -1.1234 -8.27661 -7.84243 24.4643 -14.1772 2.84217e-14 -8.88178e-16 42.855 4.24028 76.4067 -26.1234 0 7.10543e-15 4.86009 -4.74612 41.2425 -27.7188 -1.42109e-14 0 -17.1468 -32.4816 -18.9841 -2.2979 -0.4684 1.8313 -81.0452 62.2445 107.455 -5.2953 0 0 35.3525 6.87785 -6.39469 -3.0181 -1.42109e-14 -1.42109e-14 -12.4883 -9.51409e-05 0.000105278 -9.3793 0.2991 2.5924 -5.04525 -7.15995 -5.70964 -4.3461 -3.55271e-15 2.84217e-14 22.417 -0.458366 -4.23841 -2.1666 0 0 2.1682 1.53065e-06 6.59416e-06 -9.4769 0.8376 0.2947 50.2187 -7.02356 -9.36477 -4.772 0 0 81.6019 -4.33211 -5.11051 -2.8722 -7.10543e-15 0 -3.95751 0.0709846 -0.399396 -8.6586 1.0176 -1.7016 48.4616 2.3867 -6.85051 -4.5461 0 -1.42109e-14 78.7445 3.34007 4.24035 -2.506 3.55271e-15 2.84217e-14 -6.7605 -1.01325e-05 4.95487e-06 -7.6901 0.6618 -3.9096 50.9709 -7.35926 2.11919 -3.2119 -1.42109e-14 -2.84217e-14 75.7752 -6.71294 -5.57177 -1.924 -3.55271e-15 0 -4.413 -4.01223e-06 1.12213e-06 8.7379 -0.0029 0.0005 19.7172 -23.2636 16.9607 0 -46.6676 0 3.80098 37.3858 -1.29387 0 -40.1476 -3.55271e-15 -11.9058 -7.17846 14.3299 3.55271e-15 -8.8846 14.2294 0.0001 -4.65902e-18 -0 -8.7379 0.0029 -0.0005 -17.5642 -7.65197 -25.0403 0 -46.6676 0 -3.98522 38.6596 1.4644 -3.55271e-15 -40.1476 -2.66454e-15 16.3345 -19.9266 -1.13737 0 -8.8846 14.2294 -0 -9.93923e-17 -0 
